<?xml version="1.0" encoding="utf-8"?>
<!-- Generator: Adobe Illustrator 25.0.0, SVG Export Plug-In . SVG Version: 6.00 Build 0)  -->
<svg version="1.1" id="Layer_1" xmlns="http://www.w3.org/2000/svg" xmlns:xlink="http://www.w3.org/1999/xlink" x="0px" y="0px"
	 viewBox="0 0 735 852" style="enable-background:new 0 0 735 852;" xml:space="preserve">
<style type="text/css">
	.st0{fill:#B5BEBC;}
	.st1{opacity:0.1;clip-path:url(#SVGID_2_);}
	.st2{fill:#1B3137;}
	.st3{fill:#E6B35A;}
	.st4{opacity:0.9;fill:#FFFFFF;enable-background:new    ;}
	.st5{fill:#3D3D3D;}
	.st6{font-family:'ArialMT';}
	.st7{font-size:25.187px;}
	.st8{font-family:'EarthBound';}
	.st9{font-size:252.2474px;}
	.st10{fill:#BF364F;}
	.st11{opacity:0.9;fill:#1B3137;enable-background:new    ;}
</style>
<path class="st0" d="M715.1,226.8L366.9,16l-347,210.8v401.5L367.5,829l347.6-200.7V226.8z"/>
<g>
	<defs>
		<path id="SVGID_1_" d="M715.1,230.3L366.9,19.5l-347,210.8v401.5l347.6,200.7l347.6-200.7V230.3z"/>
	</defs>
	<clipPath id="SVGID_2_">
		<use xlink:href="#SVGID_1_"  style="overflow:visible;"/>
	</clipPath>
	<g class="st1">
		<g>
			<path class="st2" d="M224.4,674.4c-0.1-4.7,0.6-10.1,2.3-15.3c20.1-61.5,40.2-122.9,60.2-184.4c20.9-64.4,41.5-128.9,62.5-193.3
				c14.2-43.7,28.9-87.2,43.2-130.9c2.8-8.5,7.9-14.9,15.2-19.9c9.6-6.6,19.7-7.4,29.8-1.3c10.6,6.4,17.7,15.1,15.8,28.5
				c-3,20.3-10.6,39.4-16.8,58.8C413,290.1,388.9,363.5,365,437c-23.4,71.8-47,143.6-70.6,215.4c-3.3,10-6.5,20.1-9.9,30.1
				c-5.1,15-19.6,24.1-35,22.3C236,703.1,225.8,691,224.4,674.4z"/>
			<path class="st2" d="M553.3,241.3c10.5-2.6,19.7,3.4,28.9,9.4c50.1,32.2,100.2,64.4,150.2,96.7c6.9,4.4,13.6,9,20.2,13.9
				c14.2,10.6,16.6,30.3,4.7,44.3c-13.5,15.9-30.2,28.4-45.5,42.5c-33.8,31.1-67.9,61.8-102.1,92.5c-8,7.2-15.7,15.2-27.4,16.7
				c-16.9,2.2-28-2-33.3-13.3c-6.2-13.3-3.1-30.2,8-40.3c12.8-11.7,25.9-23.1,38.8-34.7c26.8-24.2,53.4-48.5,80.3-72.6
				c8-7.2,1.1-9.8-3.5-12.7c-33-21.1-66-42.1-99.1-63.1c-11.2-7.1-22.5-14.1-33.6-21.4c-18.5-12.2-21.9-35.6-7.5-50.2
				C537.6,243.7,540.9,242.4,553.3,241.3z"/>
			<path class="st2" d="M141.7,599.1c-10.4,1.7-19.5-1.7-28.2-7C56.9,557.5,0.2,523-56.6,488.6c-20.3-12.3-24.2-31.9-8.7-49.7
				c22.4-25.7,48.8-47.4,73.1-71.2c25.3-24.7,51.3-48.8,76.8-73.3c18.5-17.8,43.9-15.5,54.4,5c6.1,11.9,2.9,27.5-8.4,38.3
				c-31,29.6-62.1,59.1-93.3,88.6c-7.7,7.3-15.3,14.6-23.1,21.6c-5,4.5-5.6,7.5,1,11.4c32.1,19.2,64,38.9,96,58.3
				c13.7,8.3,27.5,16.3,41.1,24.8c15.1,9.6,20.8,27.2,14,41.6C161.4,594.4,152.7,598.7,141.7,599.1z"/>
		</g>
	</g>
</g>
<path class="st3" d="M367,633.9c0.3-0.3,0.6-0.6,0.9-0.9h-0.3C367.5,633.3,367.3,633.6,367,633.9z"/>
<path class="st4" d="M105.5,343.9L105.5,343.9C103.7,343.7,104.9,343.8,105.5,343.9z"/>
<path class="st4" d="M105.5,343.9c-1.7-0.1-1,0-0.4,0h0.9h-0.1H105.5C105.9,343.9,106,344,105.5,343.9z"/>
<text transform="matrix(0.8665 -0.4992 0.4992 0.8665 368.7678 808.8624)" class="st5 st6 st7">www.pedrocsilva.com</text>
<g>
	<g>
		<g>
			<text transform="matrix(1 0 0 1 68.2915 429.1621)" class="st2 st8 st9">shinyBound</text>
		</g>
	</g>
	<g>
		<g>
			<g>
				<text transform="matrix(1 0 0 1 64.7969 423.3379)" class="st10 st8 st9">shinyBound</text>
			</g>
		</g>
	</g>
</g>
<image style="overflow:visible;enable-background:new    ;" width="545" height="320" xlink:href="EB0ABC0B.jpg"  transform="matrix(0.9978 0 0 0.9978 -1346.4695 738.5025)">
</image>
<image style="overflow:visible;" width="683" height="199" xlink:href="EB0ABC09.jpg"  transform="matrix(1 0 0 1 788 8.5)">
</image>
<image style="overflow:visible;" width="918" height="222" xlink:href="EB0ABC0F.jpg"  transform="matrix(1 0 0 1 801.5 -239.3503)">
</image>
<image style="overflow:visible;" width="796" height="768" xlink:href="EB0ABC08.jpg"  transform="matrix(1 0 0 1 -1180.5 -151.4975)">
</image>
<image style="overflow:visible;" width="795" height="799" xlink:href="EB0ABC06.jpg"  transform="matrix(1 0 0 1 -860 122.5)">
</image>
<image style="overflow:visible;" width="795" height="798" xlink:href="EB0ABC07.jpg"  transform="matrix(1 0 0 1 -1074.569 -470)">
</image>
<g>
	<g>
		<g>
			<g>
				<path class="st2" d="M176.1,624.4l1.9-2.8c1.3,0.9,2.6,1.5,4,1.9c1.3,0.4,2.9,0.6,4.6,0.6c2,0,3.6-0.5,4.9-1.4
					c1.3-0.9,1.9-2.3,1.9-4c0-1.6-0.5-2.8-1.6-3.8c-1.1-0.9-2.8-1.9-5.3-2.8c-3-1.1-5.3-2.3-6.8-3.7c-1.5-1.4-2.2-3.2-2.2-5.4
					c0-2.6,1-4.8,2.9-6.4c1.9-1.6,4.4-2.5,7.5-2.5c1.4,0,2.9,0.2,4.2,0.5s2.8,0.8,4.3,1.5l-1.4,3c-1.2-0.6-2.4-1-3.6-1.2
					c-1.2-0.3-2.4-0.4-3.8-0.4c-1.9,0-3.5,0.5-4.6,1.4s-1.7,2.2-1.7,3.8c0,1.4,0.5,2.5,1.6,3.4c1,0.8,2.8,1.7,5.2,2.6
					c3.2,1.2,5.6,2.5,7,3.9c1.4,1.4,2.1,3.4,2.1,5.8c0,2.6-0.9,4.8-2.8,6.6c-1.9,1.8-4.6,2.6-8,2.6c-1.9,0-3.7-0.2-5.3-0.7
					S177.7,625.5,176.1,624.4z"/>
				<path class="st2" d="M204.8,598.3c-0.8,0-1.4-0.3-1.9-0.8c-0.5-0.5-0.8-1.1-0.8-1.9c0-0.7,0.3-1.4,0.8-1.9
					c0.5-0.5,1.1-0.8,1.9-0.8c0.8,0,1.4,0.3,1.9,0.8s0.8,1.1,0.8,1.9c0,0.7-0.3,1.4-0.8,1.9S205.6,598.3,204.8,598.3z M206.6,626.9
					h-3.7v-23.1h3.7V626.9z"/>
				<path class="st2" d="M246.9,626.9h-3.7v-13.3c0-2.6-0.4-4.4-1.2-5.5c-0.8-1.1-2.1-1.7-4-1.7c-1.6,0-2.9,0.7-4,2.2
					c-1.1,1.4-1.7,3.2-1.7,5.2v13.2h-3.7v-13.7c0-2.3-0.4-4-1.3-5.1c-0.9-1.1-2.2-1.7-3.9-1.7c-1.6,0-3,0.7-4,2
					c-1.1,1.4-1.6,3.1-1.6,5.3v13.2h-3.7v-23.1h3.7v3.7h0.1c0.8-1.4,1.8-2.4,3-3.1c1.2-0.7,2.6-1,4.1-1c1.6,0,3,0.4,4.1,1.3
					c1.2,0.9,2,2,2.4,3.5c0.9-1.6,1.9-2.8,3.2-3.6c1.3-0.8,2.8-1.2,4.5-1.2c2.5,0,4.4,0.8,5.7,2.3c1.3,1.6,1.9,3.9,1.9,7.1V626.9z"
					/>
				<path class="st2" d="M257.7,623.5L257.7,623.5l-0.1,14h-3.7v-33.7h3.7v4.1h0.1c0.9-1.5,2-2.7,3.4-3.5c1.3-0.8,2.9-1.2,4.6-1.2
					c3,0,5.3,1,7,3.1c1.7,2.1,2.5,4.8,2.5,8.3c0,3.9-0.9,7-2.8,9.3c-1.9,2.3-4.5,3.5-7.7,3.5c-1.5,0-2.8-0.3-4-1
					S258.5,624.8,257.7,623.5z M257.6,614.2v3.2c0,1.9,0.6,3.5,1.9,4.9s2.8,2,4.7,2c2.2,0,4-0.9,5.3-2.6c1.3-1.7,1.9-4.1,1.9-7.2
					c0-2.6-0.6-4.6-1.8-6c-1.2-1.5-2.8-2.2-4.8-2.2c-2.2,0-3.9,0.7-5.2,2.2C258.3,610.1,257.6,612,257.6,614.2z"/>
				<path class="st2" d="M281.1,626.9v-34.2h3.7v34.2H281.1z"/>
				<path class="st2" d="M310.8,616.2h-16.3c0.1,2.6,0.7,4.6,2.1,6c1.3,1.4,3.2,2.1,5.5,2.1c1,0,2.1-0.2,3.1-0.5s2.1-0.8,3.1-1.5
					l1.7,2.6c-1.3,0.8-2.6,1.5-3.9,1.9c-1.3,0.4-2.7,0.6-4.3,0.6c-3.5,0-6.2-1-8.2-3.1c-2-2.1-2.9-5-3-8.7c0-3.7,1-6.7,2.9-9
					c2-2.3,4.5-3.4,7.7-3.4c3,0,5.3,1,7,2.9s2.5,4.7,2.5,8.2V616.2z M307.1,613.1c0-2.1-0.5-3.8-1.6-5c-1-1.2-2.4-1.8-4.2-1.8
					c-1.8,0-3.3,0.6-4.5,1.8c-1.2,1.2-2,2.9-2.2,5H307.1z"/>
				<path class="st2" d="M353.9,626.9h-3.8v-14.8h-16.7v14.8h-3.8v-32.4h3.8v14.2h16.7v-14.2h3.8V626.9z"/>
				<path class="st2" d="M381.5,598h-9.3v28.9h-3.8V598H359v-3.4h22.4V598z"/>
				<path class="st2" d="M419.6,626.9h-3.8v-21.7c0-0.9,0-1.8,0.1-2.9c0.1-1.1,0.1-2.2,0.2-3.4H416c-0.2,0.7-0.3,1.3-0.5,1.9
					s-0.3,0.9-0.5,1.3L404,626.9h-1.8l-11-24.7c-0.2-0.4-0.3-0.8-0.5-1.4c-0.2-0.6-0.3-1.2-0.5-1.9h-0.1c0.1,0.6,0.1,1.5,0.1,2.5
					c0,1.1,0,2.3,0,3.8v21.7h-3.7v-32.4h5l9.9,22.6c0.4,0.9,0.7,1.6,1,2.3s0.4,1.2,0.5,1.6h0.1c0.3-0.9,0.6-1.7,0.9-2.3
					s0.5-1.2,0.7-1.6l10.1-22.5h4.7V626.9z"/>
				<path class="st2" d="M444.9,626.9h-16.8v-32.4h3.8v28.9h13V626.9z"/>
				<path class="st2" d="M465.8,623.9L465.8,623.9l-0.1,3H462v-34.2h3.7v15.2h0.1c0.9-1.5,2-2.7,3.4-3.5c1.3-0.8,2.9-1.2,4.6-1.2
					c3,0,5.3,1,7,3.1c1.7,2.1,2.5,4.8,2.5,8.3c0,3.9-0.9,7-2.8,9.3c-1.9,2.3-4.5,3.5-7.7,3.5c-1.5,0-2.9-0.3-4-0.9
					C467.5,626,466.6,625.1,465.8,623.9z M465.7,614.2v3.2c0,1.9,0.6,3.5,1.9,4.9c1.2,1.3,2.8,2,4.7,2c2.2,0,4-0.9,5.3-2.6
					c1.3-1.7,1.9-4.1,1.9-7.2c0-2.6-0.6-4.6-1.8-6s-2.8-2.2-4.8-2.2c-2.2,0-3.9,0.7-5.2,2.2C466.4,610.1,465.7,612,465.7,614.2z"/>
				<path class="st2" d="M491.1,598.3c-0.8,0-1.4-0.3-1.9-0.8s-0.8-1.1-0.8-1.9c0-0.7,0.3-1.4,0.8-1.9s1.1-0.8,1.9-0.8
					c0.8,0,1.4,0.3,1.9,0.8c0.5,0.5,0.8,1.1,0.8,1.9c0,0.7-0.3,1.4-0.8,1.9C492.4,598,491.8,598.3,491.1,598.3z M492.9,626.9h-3.7
					v-23.1h3.7V626.9z"/>
				<path class="st2" d="M519.5,626.9h-3.7v-13.2c0-2.5-0.4-4.3-1.3-5.5c-0.9-1.2-2.2-1.8-4-1.8c-1.8,0-3.4,0.7-4.6,2.1
					c-1.2,1.4-1.8,3.1-1.8,5.3v13.2h-3.7v-23.1h3.7v3.8h0.1c0.9-1.5,1.9-2.6,3.2-3.3c1.3-0.7,2.7-1.1,4.4-1.1c2.5,0,4.5,0.8,5.8,2.4
					c1.3,1.6,2,4,2,7.1V626.9z"/>
				<path class="st2" d="M542.4,623c-0.9,1.5-1.9,2.6-3.3,3.4s-2.9,1.1-4.7,1.1c-2.9,0-5.2-1-7-3.1s-2.6-4.9-2.6-8.4
					c0-3.8,1-6.9,2.9-9.2c1.9-2.3,4.5-3.5,7.7-3.5c1.6,0,3,0.3,4.1,0.9s2.1,1.6,2.8,2.8h0.1v-14.3h3.7v34.2h-3.7L542.4,623
					L542.4,623z M528.7,615.7c0,2.7,0.6,4.8,1.9,6.3c1.2,1.5,2.9,2.3,5,2.3c2.1,0,3.8-0.7,5-2.2c1.3-1.5,1.9-3.4,1.9-5.6V613
					c0-1.9-0.6-3.4-1.9-4.7c-1.2-1.3-2.8-1.9-4.7-1.9c-2.3,0-4,0.8-5.3,2.5C529.4,610.5,528.7,612.8,528.7,615.7z"/>
				<path class="st2" d="M551.5,625.1l1.8-2.8c1,0.7,2,1.2,3,1.5c1,0.3,2,0.5,3.1,0.5c1.6,0,2.8-0.3,3.6-0.9
					c0.8-0.6,1.2-1.5,1.2-2.6c0-0.9-0.4-1.7-1.1-2.4s-1.9-1.2-3.4-1.6c-2.9-0.7-4.9-1.7-5.9-2.8c-1.1-1.1-1.6-2.5-1.6-4.1
					c0-1.9,0.7-3.5,2.1-4.7c1.4-1.3,3.4-1.9,6-1.9c1.2,0,2.4,0.2,3.5,0.5c1.1,0.3,2.2,0.9,3.4,1.6l-1.6,2.8c-1.1-0.7-2-1.1-2.8-1.4
					c-0.8-0.3-1.7-0.4-2.5-0.4c-1.5,0-2.6,0.3-3.4,0.8c-0.8,0.5-1.2,1.3-1.2,2.4c0,1,0.4,1.8,1.2,2.3c0.8,0.5,2.1,1,3.9,1.5
					c2.3,0.6,4.1,1.5,5.3,2.7c1.2,1.1,1.7,2.6,1.7,4.5c0,2.1-0.8,3.8-2.3,5.1c-1.5,1.2-3.6,1.9-6.2,1.9c-1.4,0-2.8-0.2-4.1-0.6
					C553.9,626.4,552.7,625.9,551.5,625.1z"/>
				<path class="st2" d="M288.5,651.2c-0.4-0.1-0.8-0.2-1.1-0.3c-0.3-0.1-0.7-0.1-1.1-0.1c-1.3,0-2.2,0.3-2.8,1s-0.9,1.7-0.9,3v4.5
					h5.4v3.2h-5.4v19.9h-3.7v-19.9h-3.9v-3.2h3.9v-4.6c0-2.2,0.7-3.9,2-5.1c1.3-1.2,3.2-1.8,5.5-1.8c0.6,0,1.1,0,1.6,0.1
					c0.5,0.1,0.9,0.2,1.4,0.4L288.5,651.2z"/>
				<path class="st2" d="M301.6,682.9c-3.4,0-6.1-1.1-8.2-3.2c-2-2.2-3.1-5-3.1-8.6c0-3.9,1.1-6.9,3.2-9.1c2.1-2.2,5-3.3,8.6-3.3
					c3.4,0,6.1,1,8.1,3.2c1.9,2.1,2.9,5.1,2.9,8.8c0,3.7-1,6.7-3.1,8.9C307.9,681.8,305.1,682.9,301.6,682.9z M301.8,679.8
					c2.4,0,4.2-0.8,5.5-2.3c1.3-1.6,1.9-3.8,1.9-6.6c0-2.9-0.6-5.1-1.9-6.7c-1.3-1.6-3.1-2.3-5.5-2.3c-2.4,0-4.3,0.8-5.6,2.4
					c-1.4,1.6-2.1,3.9-2.1,6.7c0,2.7,0.7,4.9,2.1,6.5C297.6,679,299.5,679.8,301.8,679.8z"/>
				<path class="st2" d="M330.4,662.4c-0.3-0.1-0.5-0.2-0.8-0.2c-0.2,0-0.5-0.1-0.9-0.1c-1.9,0-3.4,0.8-4.4,2.4s-1.6,3.6-1.6,6v11.8
					H319v-23.1h3.7v4.6h0.1c0.5-1.6,1.3-2.9,2.4-3.7s2.3-1.3,3.7-1.3c0.5,0,0.9,0,1.2,0.1c0.3,0,0.6,0.1,0.9,0.2L330.4,662.4z"/>
			</g>
		</g>
		<g>
			<path class="st11" d="M403.7,658.8c1.2,0.1,2.9-0.2,3.5-2.1c0.2-0.8-0.2-1.9-0.4-2.2c-0.3-0.3-0.7-0.5-1.3-0.5
				c-0.6,0-1.3,0.2-2.1,0.8c-0.9,0.7-1,1.9-0.8,2.6C402.8,658.3,403.3,658.8,403.7,658.8z"/>
			<path class="st11" d="M452.9,662.4c-0.1-0.1-0.2-0.2-0.2-0.2l-2.2-0.1c-1,0-1.9,0.1-2.9,0.2c-0.4,0.1-0.7,0.2-1,0.5
				c-0.3,0.2-0.5,0.5-0.7,0.6c-0.2,0.3-0.5,0.6-0.7,1c-0.2,0.5-0.5,0.8-0.5,1.1c-0.1,0.2-0.3,0.7-0.6,1.5c-0.3,0.7-0.5,1.2-0.7,1.7
				c-1.2,2.9-2.8,5.6-4.8,8c-2.1,2.6-3.6,3.8-4.8,3.8h-0.1c-0.5-0.1-0.7-0.7-0.7-1.7c0.1-2.4,0.9-5.3,2.5-8.9
				c1.6-3.5,3.1-5.8,4.6-7.2c0.2-0.2,0.4-0.5,0.4-0.7c0,0,0,0,0-0.1c0-0.2-0.2-0.4-0.4-0.4c-1.9-0.1-3.3,0.1-4.5,0.5
				c-1.1,0.5-2.3,1.6-3.3,3.3c-0.9,1.5-1.8,3.3-2.6,5.7c0,0,0,0,0,0.1c-0.1,0.2-0.2,0.4-0.4,0.7c-0.5,0.8-1.1,1.8-1.7,2.9
				c-0.5,0.9-1.2,1.9-1.9,2.6c-0.6,0.8-1.3,1.5-2.1,2.1c-1,0.8-1.6,0.9-1.8,0.9h-0.1c-0.3-0.1-0.7-0.2-0.6-1.2
				c0.1-1.5,0.9-4.2,2.6-8.4c0.8-1.9,1.2-3.2,1.5-3.8c0.2-0.7,0.3-1.4,0.4-2.1c0.1-2.1-0.9-3.2-3.1-3.3c-2.6-0.1-5.3,1-8,3.3
				c-0.1,0.1-0.1,0.1-0.2,0.1c-0.1-0.1-0.2-0.2-0.2-0.2c0.2-0.5,0.2-0.9,0.3-1.5c0.1-0.5-0.2-0.9-0.5-1.3c-0.4-0.3-1.2-0.5-2.5-0.5
				l-2.2-0.1c-0.1,0-0.1,0-0.1,0.1c-0.1,0.1-0.1,0.2-0.1,0.2c0.1,0.2,0.1,0.5,0.1,0.8c-0.1,1.6-0.8,4.2-2.2,8l-0.3,0.5
				c-0.2,0.1-0.4,0.4-0.9,1.3c-0.5,0.8-1.1,1.8-1.8,2.9c-0.7,1.1-1.3,2.1-1.9,2.8c-0.5,0.8-1.3,1.4-2.1,2.1c-1,0.8-1.6,0.9-1.8,0.9
				h-0.1c-0.2,0-0.7-0.1-0.7-1.5c0.1-1.1,0.4-2.5,1-4.2c0.6-1.7,1.2-3.1,1.7-4.1c0.5-1,1.2-2.4,2.3-4.5c1-1.9,1.7-3.1,2.3-3.6
				c0.1-0.1,0.1-0.1,0.1-0.2c0-0.1-0.1-0.2-0.2-0.2l-3.1-0.2c-1.6-0.1-3.1,1.1-4.4,3.4c-1.1,2.1-2.1,4.1-3,6.2c0,0.1,0,0.1-0.1,0.1
				c-3.3,6.4-6,9.7-8,9.6H386c-0.2,0-0.6-0.1-0.5-1.2c0.1-0.9,0.3-2.2,0.8-3.8c0.2-0.6,0.5-1.4,0.8-2.3c0.4-0.9,0.6-1.6,0.8-2.1
				c0.2-0.5,0.5-1.2,0.8-2.1c0.4-0.8,0.6-1.6,0.9-2.2c0.3-0.7,0.5-1.5,0.5-2.2c0.1-2.1-0.9-3.1-3.1-3.2c-1.1,0-2.2,0.2-3.2,0.5
				c-0.7,0.2-1.4,0.6-2.1,1c-0.1,0.1-0.2,0.1-0.3-0.1c-0.1-0.1-0.1-0.2,0.1-0.3c3.9-4.6,6.8-8.8,8.7-12.4c1-2.1,1.6-3.7,1.6-5
				c0.1-1.9-0.8-3-2.6-3c-1.7-0.1-3.5,0.7-5.2,2.2c-1.7,1.7-3.2,3.5-4.4,5.6c-1.5,2.6-2.8,5.4-4,8.2c-1.4,3.2-3.1,7.8-5.1,13.4
				c-2,5.6-3.5,9.9-4.5,12.5c0,0.1,0,0.1,0,0.1c0,0.1,0.1,0.2,0.2,0.2l5.2,0.2l0.1-0.2c0.4-1.2,0.7-2.2,1-3.1
				c0.3-0.9,0.7-2.1,1.1-3.5c0.5-1.4,0.9-2.6,1.2-3.6s0.9-2.1,1.6-3.5c0.6-1.2,1.4-2.4,2.4-3.4c0.8-0.9,1.8-1.6,2.9-2.2
				c1.2-0.6,1.8-0.7,2.1-0.7h0.1c0.3,0.1,0.6,0.2,0.6,1c0,0.5-0.3,1.5-0.8,2.8c-2.4,5.5-3.7,9.8-3.8,12.8c-0.1,2.8,0.9,4.2,3.1,4.2
				c2.5,0.1,5.5-2.4,9-7.5c0.1-0.1,0.2-0.2,0.2-0.1c0.1,0.1,0.2,0.2,0.1,0.2c-0.1,0.6-0.1,1.2-0.2,1.8c-0.1,3,0.8,4.6,2.6,4.8
				c0.1,0,0.2,0,0.2,0c1.2,0.1,2.5-0.5,3.9-1.7s2.8-2.5,3.8-4.1c0.2-0.2,0.4-0.5,0.5-0.8c-1.1,2.8-1.7,4.5-1.7,5v0.2l5.4,0.2
				l0.1-0.2c0.1-0.2,0.4-1.1,0.5-1.9c0.4-1.1,0.7-2.3,1-3.3c0.3-1,0.8-2.3,1.4-3.8c0.5-1.4,1.1-2.8,1.8-4.1c0.7-1.2,1.4-2.3,2.1-3.5
				c0.6-1,1.5-1.9,2.5-2.5c0.8-0.5,1.7-0.8,2.6-0.8c0.8,0,1.2,0.4,1.1,1c0,0.4-0.1,0.7-0.2,1c-2.9,7.4-4.4,12.3-4.5,14.9
				c-0.1,2.6,0.9,4,3.1,4.1c1.2,0.1,2.5-0.5,3.9-1.7s2.8-2.5,3.8-4.1c0.4-0.5,0.7-1,1.1-1.6c0.1-0.1,0.2-0.2,0.2-0.1
				c0.1,0.1,0.2,0.2,0.1,0.2c-0.1,0.3-0.1,0.6-0.1,0.9c-0.1,1.6,0.2,2.9,0.7,3.8s1.4,1.4,2.4,1.4c0.8,0.1,1.7-0.1,2.5-0.2
				c0.7-0.2,1.7-0.9,3-1.9c1-0.9,1.9-1.9,2.8-2.9c0.1-0.1,0.2-0.1,0.2-0.1c0.1,0.1,0.2,0.2,0.1,0.2l-2.1,5.2c0,0.1-0.1,0.1-0.2,0.1
				c-3.1,0.5-7.4,0.2-10.1,1.8H427c-0.5,0.2-1.4,0.9-1.9,1.6s-1.2,1.6-1.2,2.5c-0.1,1.5,0.2,2.8,1.7,3.7c1.1,0.7,2.1,0.9,3.5,1
				c0.2,0.1,0.5,0.1,0.8,0.1c1.9,0.1,3.7-0.4,5.3-1.2c1.7-0.9,3.3-2.1,4.5-3.7c1-1.3,1.9-2.8,2.5-4.3c0.1-0.2,0.1-0.3,0.2-0.4
				c0-0.1,0.1-0.1,0.1-0.1s0-0.1,0.1-0.1c0.1-0.2,0.2-0.3,0.2-0.5c0.2-0.4,0.3-0.7,0.4-1.1c0.1-0.2,0.1-0.2,0.2-0.4
				c0-0.1,0-0.1,0-0.2c0.3-0.8,0.7-1.7,1.1-3c0.5-1.6,0.9-2.6,1.1-3.1c0.2-0.4,0.6-1.6,1.3-3.6c0.7-1.9,1.6-4.2,2.5-6.4
				c1.2-2.8,2.3-4.5,3.4-5.2l0.1-0.1C452.9,662.7,453,662.5,452.9,662.4z M379.2,663.6c-0.1,0.1-0.2,0.1-0.2,0.1
				c-0.1-0.1-0.2-0.2-0.1-0.2c1.8-4.5,3.6-8.4,5.3-11.9c2.6-5.1,4.1-6.1,4.9-6h0.1c0.1,0,0.4,0.1,0.4,0.9c-0.1,0.7-0.5,2.3-1.6,4.6
				C386.2,654.4,383.3,658.6,379.2,663.6z M436.3,687.7c-1.9,4-4,5.9-6.4,5.9c-0.6,0-1.2-0.2-1.6-0.7c-0.5-0.5-1-1.1-1-1.7
				c0.1-0.9,0.2-1.6,0.4-1.9c0,0,0-0.1,0.1-0.1c1.3-1.1,3.6-1.2,5.1-1.5c1.1-0.2,2.2-0.2,3.2-0.3c0.1,0,0.1,0,0.1,0
				C436.3,687.5,436.4,687.6,436.3,687.7z"/>
			<path class="st11" d="M349.4,685.1c6.9,0.9,14.2,0,17.1-7.9c1.9-5.1-1.1-9.3-3.7-13.5c0,0-0.1-0.1-0.1-0.1
				c-0.1-0.5-3-3.8-3.8-5.1c0,0,0,0-0.1-0.1c-0.4-0.4-0.7-2.1-0.8-2.9c-0.1-0.4,0-0.8,0.1-1.1c1.2-3.9,1.9-6.8,7.2-5.4
				c3.8,1,1.2,6.4,3.2,7.2h0.1c1.2,0.2,3.9-2.5,4.4-3.5c1.7-3.8-5.9-6.9-8.4-7c-4.9-0.2-8.3,2.1-10.7,6.3
				c-4.4,7.6,1.7,13.6,5.2,19.5c2.6,4.5,2.1,8.2-2.1,11.3c-4.5,3.5-8.8-2.4-8.9-6.3c-0.2-3.5,0.2-5.9-3.2-1.8
				C341.9,678.8,344.2,684.4,349.4,685.1z"/>
		</g>
	</g>
</g>
<g>
	<g>
		<g>
			<path class="st11" d="M1085.2,788.9c2.3,0.1,5.4-0.4,6.4-3.8c0.4-1.5-0.3-3.5-0.7-4c-0.6-0.6-1.3-0.9-2.4-0.9s-2.4,0.4-3.8,1.5
				c-1.7,1.3-1.9,3.5-1.5,4.9C1083.5,787.9,1084.3,788.8,1085.2,788.9z"/>
			<path class="st11" d="M1176.2,795.5c-0.1-0.2-0.3-0.3-0.4-0.3l-4.1-0.2c-1.8,0-3.5,0.1-5.4,0.4c-0.7,0.2-1.3,0.4-1.9,1
				c-0.6,0.4-1,0.9-1.3,1.2c-0.4,0.6-1,1.2-1.3,1.9c-0.4,0.9-0.9,1.5-1,2.1c-0.2,0.4-0.6,1.3-1.2,2.7c-0.6,1.3-1,2.3-1.3,3.1
				c-2.3,5.4-5.2,10.3-8.9,14.8c-3.8,4.8-6.7,7.1-8.9,7.1h-0.1c-0.9-0.1-1.3-1.3-1.3-3.2c0.2-4.5,1.7-9.9,4.7-16.4
				s5.8-10.8,8.5-13.3c0.4-0.4,0.7-1,0.7-1.3c0,0,0,0,0-0.1c0-0.4-0.3-0.7-0.7-0.7c-3.5-0.1-6.2,0.2-8.3,1c-2.1,0.9-4.2,2.9-6.1,6.1
				c-1.7,2.7-3.3,6.2-4.9,10.6c0,0,0,0,0,0.1c-0.2,0.4-0.4,0.7-0.7,1.3c-1,1.5-2,3.3-3.2,5.4c-1,1.7-2.2,3.5-3.5,4.9
				c-1.2,1.4-2.4,2.7-3.8,3.8c-1.8,1.4-2.9,1.7-3.3,1.7h-0.1c-0.6-0.1-1.3-0.4-1.2-2.2c0.1-2.7,1.7-7.8,4.9-15.5
				c1.4-3.6,2.3-5.9,2.7-7.1c0.4-1.3,0.6-2.5,0.7-3.8c0.2-3.9-1.7-6-5.7-6.1c-4.9-0.2-9.9,1.8-14.9,6.1c-0.1,0.1-0.2,0.1-0.4,0.1
				c-0.2-0.1-0.4-0.3-0.3-0.4c0.3-0.9,0.4-1.7,0.6-2.7c0.1-0.9-0.3-1.7-1-2.4c-0.7-0.6-2.2-0.9-4.6-1l-4.1-0.2c-0.1,0-0.2,0-0.2,0.1
				c-0.2,0.1-0.2,0.4-0.1,0.4c0.2,0.4,0.2,1,0.2,1.4c-0.1,2.9-1.4,7.8-4,14.8l-0.6,0.9c-0.3,0.2-0.7,0.7-1.6,2.4
				c-1,1.5-2,3.3-3.3,5.4c-1.3,2.1-2.4,3.8-3.5,5.1c-1,1.4-2.4,2.6-3.8,3.8c-1.9,1.4-2.9,1.6-3.3,1.6h-0.1c-0.3,0-1.3-0.1-1.3-2.8
				c0.1-2,0.7-4.6,1.8-7.7s2.2-5.7,3.2-7.5c0.9-1.8,2.2-4.4,4.2-8.3c1.8-3.6,3.2-5.8,4.3-6.6c0.1-0.1,0.1-0.2,0.1-0.3
				c0-0.2-0.2-0.4-0.4-0.4l-5.8-0.3c-2.9-0.1-5.7,2-8.1,6.3c-2.1,3.8-3.9,7.5-5.5,11.5c0,0.1,0,0.1-0.1,0.2
				c-6.2,11.9-11.2,17.9-14.8,17.7h-0.1c-0.3,0-1.2-0.1-1-2.3c0.1-1.7,0.6-4,1.5-7c0.4-1.2,0.9-2.6,1.5-4.3c0.7-1.7,1.2-2.9,1.5-3.9
				c0.3-1,0.9-2.2,1.5-3.8c0.7-1.5,1.2-2.9,1.6-4c0.6-1.3,0.9-2.7,0.9-4c0.1-3.8-1.7-5.7-5.7-5.9c-2.1,0-4.1,0.3-6,1
				c-1.3,0.4-2.6,1.2-3.8,1.8c-0.2,0.1-0.4,0.1-0.6-0.1c-0.1-0.2-0.1-0.4,0.1-0.6c7.3-8.5,12.6-16.3,16.1-22.9
				c1.9-3.8,2.9-6.9,2.9-9.3c0.1-3.5-1.5-5.5-4.9-5.5c-3.2-0.1-6.5,1.3-9.6,4c-3.2,3.1-5.9,6.5-8.1,10.3c-2.8,4.9-5.2,10-7.4,15.2
				c-2.5,6-5.7,14.4-9.4,24.8c-3.7,10.4-6.5,18.3-8.4,23.1c0,0.1,0,0.1,0,0.2c0,0.2,0.2,0.4,0.4,0.4l9.7,0.4l0.1-0.3
				c0.7-2.2,1.3-4,1.9-5.7c0.6-1.6,1.3-3.8,2.1-6.4c0.9-2.6,1.6-4.8,2.3-6.6c0.7-1.8,1.7-3.9,2.9-6.4c1.2-2.3,2.6-4.5,4.4-6.3
				c1.5-1.6,3.3-2.9,5.4-4c2.3-1.2,3.3-1.3,3.8-1.3h0.2c0.6,0.1,1.2,0.3,1.2,1.8c0,1-0.6,2.7-1.5,5.2c-4.5,10.2-6.8,18.1-7.1,23.7
				c-0.2,5.1,1.7,7.7,5.8,7.8c4.6,0.2,10.2-4.4,16.7-13.9c0.1-0.2,0.3-0.3,0.4-0.2c0.2,0.1,0.3,0.3,0.2,0.4
				c-0.2,1.2-0.2,2.2-0.3,3.3c-0.2,5.5,1.5,8.5,4.9,8.8c0.2,0,0.3,0,0.4,0c2.2,0.1,4.6-1,7.3-3.2c2.7-2.2,5.1-4.7,7.1-7.5
				c0.4-0.4,0.7-1,1-1.4c-2,5.2-3.1,8.3-3.1,9.2v0.4l10,0.4l0.1-0.3c0.1-0.3,0.7-2.1,1-3.6c0.7-2.1,1.3-4.2,1.9-6.2
				c0.6-1.9,1.4-4.3,2.5-7.1c1-2.6,2-5.2,3.3-7.5c1.3-2.2,2.5-4.3,3.9-6.4c1.2-1.9,2.8-3.5,4.6-4.7c1.4-1,3.2-1.5,4.9-1.5
				c1.5,0,2.2,0.7,2.1,1.9c0,0.7-0.2,1.3-0.4,1.9c-5.4,13.7-8.1,22.8-8.3,27.6c-0.2,4.9,1.7,7.4,5.8,7.5c2.2,0.1,4.6-1,7.3-3.2
				c2.7-2.2,5.2-4.7,7.1-7.5c0.7-0.9,1.3-1.9,2.1-2.9c0.1-0.2,0.3-0.3,0.4-0.2c0.2,0.1,0.3,0.3,0.2,0.4c-0.1,0.6-0.2,1.2-0.2,1.6
				c-0.2,2.9,0.3,5.4,1.3,7s2.6,2.6,4.4,2.6c1.5,0.1,3.1-0.1,4.6-0.4c1.3-0.4,3.2-1.6,5.5-3.6c1.8-1.6,3.5-3.5,5.2-5.4
				c0.1-0.1,0.3-0.2,0.4-0.1c0.2,0.1,0.3,0.3,0.2,0.4l-3.8,9.7c0,0.1-0.1,0.2-0.3,0.2c-5.7,1-13.7,0.4-18.7,3.3h-0.1
				c-1,0.3-2.5,1.6-3.5,2.9c-1,1.3-2.2,2.9-2.2,4.6c-0.1,2.8,0.4,5.1,3.1,6.8c2,1.3,3.8,1.6,6.4,1.9c0.4,0.1,1,0.1,1.4,0.1
				c3.5,0.1,6.8-0.7,9.9-2.3c3.2-1.6,6.1-3.9,8.3-6.8c1.8-2.4,3.5-5.1,4.6-8c0.1-0.3,0.2-0.6,0.4-0.7c0-0.1,0.1-0.1,0.1-0.2
				c0-0.1,0-0.1,0.1-0.2c0.1-0.3,0.3-0.6,0.4-0.9c0.3-0.7,0.6-1.3,0.7-2c0.1-0.3,0.2-0.4,0.3-0.7c0-0.1,0-0.2,0-0.3
				c0.6-1.4,1.3-3.2,2-5.5c1-2.9,1.7-4.8,2-5.7c0.3-0.7,1.2-2.9,2.4-6.6c1.3-3.5,2.9-7.7,4.7-11.9c2.2-5.1,4.3-8.3,6.3-9.6l0.1-0.1
				C1176.2,796,1176.4,795.8,1176.2,795.5z M1039.8,797.8c-0.1,0.1-0.3,0.2-0.4,0.1c-0.2-0.1-0.3-0.3-0.2-0.4
				c3.3-8.3,6.6-15.5,9.9-22.1c4.8-9.4,7.5-11.3,9-11.2h0.1c0.2,0,0.7,0.1,0.7,1.7c-0.1,1.3-1,4.2-2.9,8.5
				C1052.7,780.7,1047.4,788.5,1039.8,797.8z M1145.5,842.4c-3.5,7.4-7.4,11-11.8,10.9c-1.2,0-2.2-0.4-2.9-1.3
				c-0.9-0.9-1.8-2-1.8-3.2c0.1-1.6,0.3-2.9,0.7-3.6c0,0,0-0.1,0.1-0.1c2.4-2.1,6.6-2.3,9.4-2.7c2-0.3,4-0.4,6-0.6
				c0.1,0,0.2,0,0.2,0C1145.5,842,1145.6,842.2,1145.5,842.4z"/>
			<path class="st11" d="M984.6,837.6c12.7,1.6,26.3,0,31.6-14.7c3.5-9.4-2-17.2-6.8-25c0,0-0.1-0.1-0.1-0.2c-0.1-1-5.5-7.1-7-9.4
				c0,0,0,0-0.1-0.1c-0.7-0.7-1.3-3.8-1.5-5.4c-0.1-0.7,0-1.4,0.2-2.1c2.2-7.3,3.5-12.6,13.3-10c7,1.9,2.2,11.9,5.9,13.3h0.1
				c2.3,0.4,7.3-4.6,8.1-6.4c3.2-7-11-12.8-15.5-13c-9.1-0.4-15.4,3.9-19.9,11.6c-8.1,14.1,3.2,25.2,9.7,36.1
				c4.9,8.3,3.9,15.1-3.8,20.9c-8.4,6.5-16.3-4.4-16.5-11.6c-0.3-6.5,0.3-11-5.9-3.3C970.8,825.8,974.9,836.2,984.6,837.6z"/>
		</g>
	</g>
</g>
<g>
	<path d="M1245.8,598.4c0.1-1.5,0.5-3.1,1.2-4.6c8-18.3,16-36.6,23.9-54.9c8.3-19.2,16.5-38.4,24.9-57.6c5.6-13,11.4-26,17.1-39
		c1.1-2.5,2.9-4.4,5.2-5.7c3.2-1.8,6.3-1.7,9.2,0.5c3.1,2.3,5,5.2,4,9.2c-1.5,6.2-4.4,11.8-6.9,17.6c-9.4,21.9-18.9,43.8-28.4,65.7
		c-9.3,21.4-18.7,42.8-28,64.1c-1.3,3-2.6,6-3.9,8.9c-2,4.5-6.7,6.8-11.4,5.8C1248.6,607.5,1245.8,603.5,1245.8,598.4z"/>
	<path d="M1359.6,474.9c3.3-0.5,5.9,1.6,8.6,3.7c14.4,11.4,28.9,22.7,43.3,34.1c2,1.6,3.9,3.2,5.8,4.9c4.1,3.7,4.2,9.8,0.1,13.7
		c-4.6,4.5-10.1,7.9-15.2,11.7c-11.3,8.6-22.7,17-34.1,25.4c-2.7,2-5.3,4.2-8.9,4.3c-5.3,0.2-8.6-1.4-9.8-5.1
		c-1.5-4.3-0.1-9.4,3.6-12.2c4.3-3.2,8.6-6.3,12.9-9.5c8.9-6.6,17.8-13.4,26.8-20c2.7-2,0.6-3-0.7-4c-9.5-7.5-19.1-14.9-28.6-22.3
		c-3.2-2.5-6.5-5-9.7-7.6c-5.3-4.3-5.7-11.6-0.8-15.7C1354.7,475.1,1355.8,474.9,1359.6,474.9z"/>
	<path d="M1222.6,572.8c-3.3,0.2-5.9-1.1-8.5-3c-16.4-12.3-32.8-24.5-49.3-36.8c-5.9-4.4-6.5-10.5-1.2-15.5
		c7.7-7.2,16.4-13.2,24.6-19.8c8.5-6.9,17.2-13.5,25.7-20.3c6.2-4.9,14-3.5,16.6,3.1c1.5,3.8,0.1,8.5-3.7,11.5
		c-10.4,8.2-20.8,16.3-31.3,24.5c-2.6,2-5.1,4-7.7,6c-1.7,1.2-1.9,2.1,0,3.5c9.3,6.8,18.5,13.8,27.8,20.7c4,3,8,5.8,11.9,8.8
		c4.4,3.4,5.6,9,3.1,13.2C1228.8,571.9,1226,573,1222.6,572.8z"/>
</g>
<path class="st2" d="M733,636.2V215l-29.1-16.8L428.1,38.9L368.3,4.4l-59.9,34.5L32.6,198.2L3.5,215v421.1l29.1,16.8l279.3,161.2
	l56.5,32.6l56.5-32.6l279.3-161.2L733,636.2z M32.6,620.4V232.7L82.3,204l286-165.1l0,0l285.1,164.6l50.5,29.2v387.7L368.3,814.2
	L32.6,620.4z"/>
<path class="st10" d="M734.9,637.4V213.1l-29.3-16.9L427.8,35.8L367.5,1l-60.3,34.8L29.4,196.2L0.1,213.1v424.2l29.3,16.9
	l281.3,162.4l56.9,32.8l56.9-32.8l281.3-162.4L734.9,637.4z M29.4,621.5V231l50-28.9L367.5,35.8l0,0l287.2,165.8l50.9,29.4v390.5
	L367.5,816.7L29.4,621.5z"/>
</svg>
